<svg xmlns="http://www.w3.org/2000/svg" xmlns:xlink="http://www.w3.org/1999/xlink" width="1080" height="1080" viewBox="0 0 1080 1080">
  <defs>
    <clipPath id="clip-monochrome-dark">
      <rect width="1080" height="1080"/>
    </clipPath>
  </defs>
  <g id="monochrome-dark" clip-path="url(#clip-monochrome-dark)">
    <path id="Rahmen" d="M0,0H810V495A135,135,0,0,1,675,630H0Z" transform="translate(135 225)" fill="#e6e6e6"/>
    <g id="Logo">
      <rect id="Rectangle_1590" data-name="Rectangle 1590" width="720" height="90" transform="translate(180 270)" fill="gray"/>
      <path id="Rectangle_1591" data-name="Rectangle 1591" d="M0,0H720a0,0,0,0,1,0,0V360a90,90,0,0,1-90,90H0a0,0,0,0,1,0,0V0A0,0,0,0,1,0,0Z" transform="translate(180 360)"/>
      <path id="Path_11" data-name="Path 11" d="M137.52-270.72q27.36,0,50.4,10.44t37.98,28.44a85.663,85.663,0,0,1,18.9,40.32,21,21,0,0,1,.72,5.76q0,2.16-1.08,2.88a8.474,8.474,0,0,1-3.24,1.08l-48.6,3.24q-3.24,0-4.14-1.08a11.091,11.091,0,0,1-1.62-4.32q-3.96-19.8-15.84-31.32T139.32-226.8q-57.6,0-57.6,92.16,0,47.88,14.4,69.84t43.92,21.96q21.6,0,36.54-10.8t24.3-35.28q1.08-2.52,4.68-2.52a10.921,10.921,0,0,1,3.24.36l35.28,7.56q5.04,1.8,3.96,9-3.6,15.48-16.74,33.48T194.4-9.72Q170.64,3.6,137.52,3.6q-37.08,0-64.62-17.46T30.6-62.82q-14.76-31.5-14.76-72.9,0-41.04,14.76-71.64t42.3-46.98Q100.44-270.72,137.52-270.72Zm150.84,10.44q0-6.84,5.76-6.84H345.6q5.76,0,5.76,6.48V-50.76a5.651,5.651,0,0,0,.9,3.6,3.788,3.788,0,0,0,3.06,1.08H470.16q6.48,0,6.48,5.4v34.2a6.331,6.331,0,0,1-1.8,4.68A6.813,6.813,0,0,1,469.8,0H296.28q-4.32,0-6.12-1.8t-1.8-5.76Zm285.12-6.84q5.76,0,5.76,6.48v252q0,4.68-2.16,6.66T569.52,0H524.16q-4.32,0-6.12-1.8t-1.8-5.76V-260.28q0-6.84,5.76-6.84Z" transform="translate(231 717)" fill="#fff"/>
    </g>
  </g>
</svg>
