<svg xmlns="http://www.w3.org/2000/svg" xmlns:xlink="http://www.w3.org/1999/xlink" width="1080" height="1080" viewBox="0 0 1080 1080">
  <defs>
    <clipPath id="clip-stencil">
      <rect width="1080" height="1080"/>
    </clipPath>
  </defs>
  <g id="stencil" clip-path="url(#clip-stencil)">
    <path id="Union_1" data-name="Union 1" d="M-2520-3131v-450h0v-90h720v90h0v360a89.436,89.436,0,0,1-7.072,35.032,89.989,89.989,0,0,1-8.3,15.287,90.646,90.646,0,0,1-10.989,13.32,90.661,90.661,0,0,1-13.32,10.989,90.089,90.089,0,0,1-15.288,8.3A89.451,89.451,0,0,1-1890-3131Zm123.9-347.34c-18.274,10.87-32.505,26.675-42.3,46.98s-14.76,44.407-14.76,71.64c0,27.471,4.966,52,14.76,72.9s24.026,37.375,42.3,48.96,40.015,17.46,64.619,17.46c21.978,0,41.115-4.481,56.881-13.32s28.181-19.377,36.9-31.32,14.35-23.208,16.738-33.48c.718-4.778-.615-7.806-3.959-9l-35.281-7.56a10.954,10.954,0,0,0-3.238-.36c-2.389,0-3.963.849-4.68,2.521a100.5,100.5,0,0,1-10.755,21.06,57.839,57.839,0,0,1-13.546,14.219,54.692,54.692,0,0,1-16.6,8.1,70.405,70.405,0,0,1-19.934,2.7,66.428,66.428,0,0,1-13.815-1.373,49.954,49.954,0,0,1-11.925-4.117,44.739,44.739,0,0,1-10.036-6.863,49.718,49.718,0,0,1-8.144-9.607,65.29,65.29,0,0,1-6.3-12.6,104.142,104.142,0,0,1-4.5-15.839c-2.389-11.586-3.6-25.514-3.6-41.4,0-15.288,1.211-28.853,3.6-40.32a108.294,108.294,0,0,1,4.5-15.84,72.576,72.576,0,0,1,6.3-12.96,52.579,52.579,0,0,1,8.1-10.081,44.662,44.662,0,0,1,9.9-7.2,47.232,47.232,0,0,1,11.7-4.32,60.782,60.782,0,0,1,13.5-1.44,52.129,52.129,0,0,1,17.82,2.88A38.823,38.823,0,0,1-2298-3439.28a50.706,50.706,0,0,1,9.9,13.59,69.509,69.509,0,0,1,5.939,17.729,11.182,11.182,0,0,0,1.62,4.32c.6.717,1.99,1.08,4.14,1.08l48.6-3.24a8.511,8.511,0,0,0,3.24-1.08c.716-.478,1.079-1.446,1.079-2.88a21.108,21.108,0,0,0-.719-5.76,86.059,86.059,0,0,0-18.9-40.32,105.034,105.034,0,0,0-37.979-28.44,121.238,121.238,0,0,0-50.4-10.439C-2356.085-3494.72-2377.825-3489.208-2396.1-3478.34Zm444.779-11.07a7.846,7.846,0,0,0-1.439,5.13v252.721c0,2.628.605,4.566,1.8,5.76s3.252,1.8,6.119,1.8h45.36c3.583,0,6.127-.666,7.56-1.98s2.16-3.553,2.16-6.659v-252a7.151,7.151,0,0,0-1.441-4.86,5.5,5.5,0,0,0-4.32-1.621H-1947A5.353,5.353,0,0,0-1951.32-3489.41Zm-227.879,0a7.845,7.845,0,0,0-1.44,5.13v252.721c0,2.628.605,4.565,1.8,5.76s3.253,1.8,6.12,1.8H-1999.2a6.844,6.844,0,0,0,5.041-1.8,6.361,6.361,0,0,0,1.8-4.68v-34.2a4.99,4.99,0,0,0-1.62-4.05,7.481,7.481,0,0,0-4.86-1.351h-114.839a3.807,3.807,0,0,1-3.061-1.08,5.671,5.671,0,0,1-.9-3.6V-3484.64a7.159,7.159,0,0,0-1.439-4.86,5.507,5.507,0,0,0-4.321-1.621h-51.479A5.349,5.349,0,0,0-2179.2-3489.41Z" transform="translate(2700 3941)"/>
  </g>
</svg>
